<svg width="164" height="164" viewBox="0 0 164 164" fill="none" xmlns="http://www.w3.org/2000/svg">
<circle cx="82.0002" cy="81.6306" r="52.2814" stroke="#DFF3EE"/>
<path d="M120.977 38.977C109.664 28.6396 94.7087 23.2195 79.4 23.909C64.0913 24.5984 49.6835 31.341 39.3462 42.6534C29.0088 53.9658 23.5887 68.9214 24.2782 84.2301C24.9676 99.5388 31.7102 113.947 43.0226 124.284L44.3916 122.786C33.4765 112.812 26.9708 98.9098 26.3055 84.1388C25.6403 69.3678 30.8701 54.9375 40.8443 44.0224C50.8186 33.1074 64.7203 26.6016 79.4913 25.9364C94.2623 25.2711 108.693 30.5009 119.608 40.4751L120.977 38.977Z" fill="#E0E8E6"/>
<path d="M87.0015 105.528C88.6037 105.528 90.0009 104.134 90.0009 102.536V95.549H92.0037C93.2055 95.549 94.0065 94.7499 94.0065 93.5515V73.5962H69.9922V93.5517C69.9922 94.7502 70.7933 95.5492 71.995 95.5492H73.9979V102.536C73.9979 104.134 75.3948 105.528 76.9974 105.528C78.5994 105.528 79.9965 104.134 79.9965 102.536V95.5492H84.0022V102.536C84.002 104.134 85.3993 105.528 87.0015 105.528Z" fill="#A6D864"/>
<path d="M99.0092 93.5518C100.611 93.5518 102.008 92.1583 102.008 90.5601V76.5866C102.008 74.9969 100.612 73.5962 99.0092 73.5962C97.4068 73.5962 96.0098 74.997 96.0098 76.5866V90.5601C96.0098 92.1581 97.4067 93.5518 99.0092 93.5518Z" fill="#A6D864"/>
<path d="M64.9904 93.5518C66.5928 93.5518 67.9898 92.1583 67.9898 90.5601V76.5866C67.9898 74.9969 66.5929 73.5962 64.9904 73.5962C63.3882 73.5962 61.9912 74.997 61.9912 76.5866V90.5601C61.9913 92.1581 63.3882 93.5518 64.9904 93.5518Z" fill="#A6D864"/>
<path d="M91.6038 58.0343C91.2034 57.6324 90.6073 57.6324 90.2069 58.0343L87.5207 60.7046L87.3968 60.828C85.8041 60.0325 84.0182 59.6352 82.0296 59.6313C82.0199 59.6313 82.0102 59.6311 82.0005 59.6311H82.0002C81.9901 59.6311 81.9808 59.6313 81.9708 59.6313C79.9823 59.6352 78.1965 60.0325 76.6039 60.828L76.4797 60.7046L73.7935 58.0343C73.3928 57.6324 72.797 57.6324 72.3966 58.0343C71.9959 58.4339 71.9959 59.0271 72.3966 59.4264L74.995 62.0186C74.1577 62.5761 73.3985 63.2584 72.7383 64.0388C71.1577 65.9075 70.1495 68.3395 70.0109 70.9746C70.0095 71.002 70.0068 71.0291 70.0056 71.0565C69.9971 71.236 69.9932 71.4163 69.9932 71.5974H94.0073C94.0073 71.4164 94.003 71.2361 93.9949 71.0565C93.9936 71.0291 93.9909 71.002 93.9893 70.9746C93.8509 68.3395 92.8425 65.9074 91.2618 64.039C90.6019 63.2586 89.8424 62.5763 89.0051 62.0187L91.6038 59.4266C92.0045 59.0271 92.0045 58.434 91.6038 58.0343ZM76.9944 68.1096C76.1658 68.1096 75.494 67.4396 75.494 66.6131C75.494 65.7866 76.1658 65.1166 76.9944 65.1166C77.823 65.1166 78.4948 65.7866 78.4948 66.6131C78.4948 67.4396 77.823 68.1096 76.9944 68.1096ZM87.006 68.1096C86.1774 68.1096 85.5056 67.4396 85.5056 66.6131C85.5056 65.7866 86.1773 65.1166 87.006 65.1166C87.8345 65.1166 88.5063 65.7866 88.5063 66.6131C88.5063 67.4396 87.8346 68.1096 87.006 68.1096Z" fill="#A6D864"/>
</svg>
